<?xml version="1.0" encoding="utf-8"?>
<!-- Generator: Adobe Illustrator 23.0.1, SVG Export Plug-In . SVG Version: 6.00 Build 0)  -->
<svg version="1.1" id="Layer_1" xmlns="http://www.w3.org/2000/svg" xmlns:xlink="http://www.w3.org/1999/xlink" x="0px" y="0px"
	 viewBox="0 0 40 24" style="enable-background:new 0 0 40 24;" xml:space="preserve">
<style type="text/css">
	.st0{fill:#263A8A;}
</style>
<title>calendar</title>
<path class="st0" d="M24.4,8.1V5h-0.9v3.1h-7V5h-0.9v3.1h-2.2V19h13.1V8.1H24.4z M25.7,8.9v2.6H14.3V8.9H25.7z M22.6,12.4v1.3h-2.2
	v-1.3H22.6z M19.6,13.8h-2.2v-1.3h2.2V13.8z M16.5,13.8h-2.2v-1.3h2.2V13.8z M16.5,14.6v1.3h-2.2v-1.3H16.5z M17.4,14.6h2.2v1.3
	h-2.2V14.6z M19.6,16.8v1.3h-2.2v-1.3H19.6z M20.4,16.8h2.2v1.3h-2.2V16.8z M20.4,15.9v-1.3h2.2v1.3H20.4z M23.5,14.6h2.2v1.3h-2.2
	V14.6z M23.5,13.8v-1.3h2.2v1.3H23.5z M14.3,16.8h2.2v1.3h-2.2V16.8z M23.5,18.1v-1.3h2.2v1.3H23.5z"/>
</svg>
