<?xml version="1.0" encoding="utf-8"?>
<!-- Generator: Adobe Illustrator 22.1.0, SVG Export Plug-In . SVG Version: 6.00 Build 0)  -->
<svg version="1.1" id="Layer_1" xmlns="http://www.w3.org/2000/svg" xmlns:xlink="http://www.w3.org/1999/xlink" x="0px" y="0px"
	 viewBox="0 0 40 40" style="enable-background:new 0 0 40 40;" xml:space="preserve">
<style type="text/css">
	.st0{fill:#263A8A;}
	.st1{fill:none;}
</style>
<title>cog</title>
<path class="st0" d="M20,23.3c-1.8,0-3.3-1.5-3.3-3.3c0-1.8,1.5-3.3,3.3-3.3c1.8,0,3.3,1.5,3.3,3.3C23.3,21.8,21.8,23.3,20,23.3z
	 M20,18c-1.1,0-2,0.9-2,2c0,1.1,0.9,2,2,2c1.1,0,2-0.9,2-2C22,18.9,21.1,18,20,18z"/>
<path class="st0" d="M22.4,30l-2.1-2.8h-0.7L17.6,30l-3-1.2l0.5-3.4l-0.5-0.5l-3.5,0.5l-1.2-3l2.8-2.1v-0.7L10,17.6l1.2-3l3.4,0.5
	l0.5-0.5l-0.5-3.5l3-1.2l2.1,2.8h0.7l2.1-2.8l3,1.2l-0.5,3.4l0.5,0.5l3.4-0.5l1.2,3l-2.7,2.1v0.7l2.8,2.1l-1.2,3l-3.4-0.5l-0.5,0.5
	l0.5,3.4L22.4,30z M16.1,28l1.1,0.5l1.8-2.5h2l1.9,2.5l1.1-0.5l-0.4-3.1l1.4-1.4l3.1,0.4l0.5-1.1L25.9,21v-2l2.5-1.9L28,16.1
	l-3.1,0.4l-1.4-1.4l0.4-3.1l-1.1-0.5L21,14.1h-2l-1.9-2.5L16.1,12l0.4,3.1l-1.4,1.4L12,16.1l-0.5,1.1l2.5,1.8v2l-2.5,1.9l0.5,1.1
	l3.1-0.4l1.4,1.4L16.1,28z"/>
<rect x="-12" y="-12" class="st1" width="64" height="64"/>
</svg>
