<?xml version="1.0" encoding="utf-8"?>
<!-- Generator: Adobe Illustrator 22.1.0, SVG Export Plug-In . SVG Version: 6.00 Build 0)  -->
<svg version="1.1" id="Layer_1" xmlns="http://www.w3.org/2000/svg" xmlns:xlink="http://www.w3.org/1999/xlink" x="0px" y="0px"
	 viewBox="0 0 20 20" style="enable-background:new 0 0 20 20;" xml:space="preserve">
<style type="text/css">
	.st0{fill:#303030;}
</style>
<path class="st0" d="M2.1,18.6h4.7V17c-2-0.5-3.5-1.4-4.6-2.7c-1.1-1.4-1.6-3-1.6-5.1c0-2.8,0.9-5,2.8-6.7S7.6,0,10,0
	c1.7,0,3.2,0.4,4.7,1.2c1.5,0.8,2.6,1.9,3.4,3.4s1.2,3,1.2,4.7c0,1.9-0.5,3.6-1.6,4.9c-1,1.3-2.6,2.3-4.7,2.9v1.6h4.7v-0.8
	c0-0.5,0.1-0.9,0.2-1c0.1-0.1,0.3-0.2,0.5-0.2c0.1,0,0.3,0,0.4,0.1c0.1,0.1,0.2,0.2,0.2,0.3c0,0.1,0.1,0.4,0,0.8V20h-7.5v-4.1
	c2-0.3,3.6-1.1,4.6-2.3c1.1-1.2,1.6-2.7,1.6-4.6c0-2.4-0.8-4.3-2.5-5.7s-3.4-2-5.4-2C8.3,1.3,6.6,1.9,5.1,3c-2,1.5-2.9,3.5-2.9,6.1
	c0,1.9,0.5,3.5,1.6,4.7c1.1,1.2,2.6,1.9,4.5,2.1V20H0.8v-2.3c0-0.4,0-0.7,0.1-0.8c0-0.1,0.1-0.2,0.2-0.3c0.1-0.1,0.2-0.1,0.4-0.1
	s0.2,0,0.3,0.1c0.1,0.1,0.2,0.2,0.3,0.3s0.1,0.4,0.1,0.8V18.6z"/>
</svg>
