<?xml version="1.0" encoding="utf-8"?>
<!-- Generator: Adobe Illustrator 22.1.0, SVG Export Plug-In . SVG Version: 6.00 Build 0)  -->
<svg version="1.1" id="Layer_1" xmlns="http://www.w3.org/2000/svg" xmlns:xlink="http://www.w3.org/1999/xlink" x="0px" y="0px"
	 viewBox="0 0 40 40" style="enable-background:new 0 0 40 40;" xml:space="preserve">
<style type="text/css">
	.st0{fill:#263A8A;}
	.st1{fill:none;}
</style>
<title>user</title>
<path class="st0" d="M30,30h-1.2v-2.5c0-0.1-0.2-0.3-0.9-0.7l-6-2v-2l0.2-0.2c1.2-0.9,2.2-2.5,2.2-3.2V15c0-1.3-1.8-3.8-4.4-3.8
	s-4.4,2.4-4.4,3.8v4.4c0,0.8,1.1,2.3,2.2,3.2l0.2,0.2v2l-6,2c-0.7,0.3-0.9,0.6-0.9,0.7V30H10v-2.5c0-0.5,0.3-1.2,1.6-1.8l0.1,0
	l5.2-1.7v-0.5c-1.1-0.9-2.5-2.7-2.5-4V15c0-2,2.4-5,5.6-5s5.6,3,5.6,5v4.4c0,1.3-1.4,3.1-2.5,4v0.5l5.3,1.8c1.3,0.7,1.6,1.3,1.6,1.8
	V30z"/>
<g>
	<rect x="10" y="10" class="st1" width="20" height="20"/>
</g>
</svg>
